<mxfile host="app.diagrams.net" modified="2023-02-10T10:26:24.689Z" agent="5.0 (Macintosh; Intel Mac OS X 10_15_7) AppleWebKit/605.1.15 (KHTML, like Gecko) Version/16.3 Safari/605.1.15" etag="w4pdJEkqlKzgs4ipGYu9" version="20.8.19" type="github">
  <diagram name="Page-1" id="5348f1db-0dfa-24cf-5d06-2057accb5106">
    <mxGraphModel dx="1454" dy="1172" grid="1" gridSize="10" guides="1" tooltips="1" connect="1" arrows="1" fold="1" page="1" pageScale="1.5" pageWidth="827" pageHeight="1500" background="none" math="0" shadow="0">
      <root>
        <mxCell id="0" style=";html=1;" />
        <mxCell id="1" style=";html=1;" parent="0" />
        <mxCell id="toIO4RwqoxFWpAezykZq-13" style="edgeStyle=orthogonalEdgeStyle;rounded=0;orthogonalLoop=1;jettySize=auto;html=1;exitX=0.5;exitY=1;exitDx=0;exitDy=0;strokeColor=#EBEBEB;fontFamily=Tahoma;fontSize=21;fontColor=#ffffff;" edge="1" parent="1" source="55dd390204d0f602-3">
          <mxGeometry relative="1" as="geometry">
            <mxPoint x="640" y="1970" as="targetPoint" />
          </mxGeometry>
        </mxCell>
        <mxCell id="55dd390204d0f602-3" value="" style="whiteSpace=wrap;html=1;rounded=0;shadow=0;dashed=0;strokeColor=none;strokeWidth=4;fillColor=#2D4166;gradientColor=none;fontFamily=Helvetica;fontSize=100;fontColor=#FFFFFF;align=center;" parent="1" vertex="1">
          <mxGeometry x="200" y="280" width="880" height="1780" as="geometry" />
        </mxCell>
        <mxCell id="55dd390204d0f602-1" value="&lt;font color=&quot;#ebebeb&quot; style=&quot;font-size: 96px;&quot;&gt;Background of AI&lt;/font&gt;" style="whiteSpace=wrap;html=1;rounded=0;shadow=0;dashed=0;strokeColor=#D2AC5B;strokeWidth=4;fillColor=#C7983C;fontFamily=Helvetica;fontSize=100;align=center;" parent="1" vertex="1">
          <mxGeometry x="200" y="80" width="880" height="200" as="geometry" />
        </mxCell>
        <mxCell id="55dd390204d0f602-2" value="" style="ellipse;whiteSpace=wrap;html=1;rounded=0;shadow=0;dashed=0;strokeColor=#D2AC5B;strokeWidth=4;fillColor=none;gradientColor=none;fontFamily=Helvetica;fontSize=100;fontColor=#FFFFFF;align=center;" parent="1" vertex="1">
          <mxGeometry x="260" y="330" width="200" height="200" as="geometry" />
        </mxCell>
        <mxCell id="55dd390204d0f602-4" value="" style="ellipse;whiteSpace=wrap;html=1;rounded=0;shadow=0;dashed=0;strokeColor=none;strokeWidth=4;fillColor=#C7983C;gradientColor=none;fontFamily=Helvetica;fontSize=100;fontColor=#FFFFFF;align=center;" parent="1" vertex="1">
          <mxGeometry x="275" y="345" width="170" height="170" as="geometry" />
        </mxCell>
        <mxCell id="55dd390204d0f602-5" value="" style="endArrow=none;html=1;dashed=1;dashPattern=1 1;labelBackgroundColor=none;strokeColor=#EBEBEB;fontFamily=Helvetica;fontSize=100;fontColor=#FFFFFF;strokeWidth=16;" parent="1" edge="1">
          <mxGeometry width="50" height="50" relative="1" as="geometry">
            <mxPoint x="269.5882352941177" y="580" as="sourcePoint" />
            <mxPoint x="1029" y="580" as="targetPoint" />
          </mxGeometry>
        </mxCell>
        <mxCell id="55dd390204d0f602-6" value="Basic concepts" style="whiteSpace=wrap;html=1;rounded=0;shadow=0;dashed=0;strokeColor=none;strokeWidth=4;fillColor=#D2AC5B;gradientColor=none;fontFamily=Helvetica;fontSize=30;fontColor=#FFFFFF;align=center;fontStyle=1" parent="1" vertex="1">
          <mxGeometry x="660" y="320" width="240" height="60" as="geometry" />
        </mxCell>
        <mxCell id="55dd390204d0f602-8" value="&lt;font style=&quot;font-size: 21px;&quot; color=&quot;#ffffff&quot;&gt;AI is the field of study that focuses on creating machines that can perform tasks that typically require human intelligence, such as recognizing speech, making decisions, and solving problems. The basic concepts of AI include machine learning, computer vision, natural language processing, and robotics.&lt;/font&gt;&lt;span style=&quot;caret-color: rgb(0, 0, 0); color: rgb(0, 0, 0); font-family: -webkit-standard; font-size: medium;&quot;&gt;&lt;/span&gt;" style="text;spacingTop=-5;fillColor=#ffffff;whiteSpace=wrap;html=1;align=left;fontSize=14;fontFamily=Helvetica;fillColor=none;strokeColor=none;rounded=0;shadow=0;dashed=0;fontColor=#FEF15B;" parent="1" vertex="1">
          <mxGeometry x="515" y="400" width="535" height="130" as="geometry" />
        </mxCell>
        <mxCell id="55dd390204d0f602-9" value="" style="ellipse;whiteSpace=wrap;html=1;rounded=0;shadow=0;dashed=0;strokeColor=#D2AC5B;strokeWidth=4;fillColor=none;gradientColor=none;fontFamily=Helvetica;fontSize=100;fontColor=#FFFFFF;align=center;" parent="1" vertex="1">
          <mxGeometry x="810" y="650" width="200" height="200" as="geometry" />
        </mxCell>
        <mxCell id="55dd390204d0f602-10" value="" style="ellipse;whiteSpace=wrap;html=1;rounded=0;shadow=0;dashed=0;strokeColor=none;strokeWidth=4;fillColor=#C7983C;gradientColor=none;fontFamily=Helvetica;fontSize=100;fontColor=#FFFFFF;align=center;" parent="1" vertex="1">
          <mxGeometry x="825" y="665" width="170" height="170" as="geometry" />
        </mxCell>
        <mxCell id="55dd390204d0f602-11" value="" style="endArrow=none;html=1;dashed=1;dashPattern=1 1;labelBackgroundColor=none;strokeColor=#EBEBEB;fontFamily=Helvetica;fontSize=100;fontColor=#FFFFFF;strokeWidth=16;" parent="1" edge="1">
          <mxGeometry width="50" height="50" relative="1" as="geometry">
            <mxPoint x="269.58823529411757" y="900" as="sourcePoint" />
            <mxPoint x="1029" y="900" as="targetPoint" />
          </mxGeometry>
        </mxCell>
        <mxCell id="55dd390204d0f602-12" value="Turing Test&lt;span style=&quot;caret-color: rgb(0, 0, 0); color: rgb(0, 0, 0); font-family: -webkit-standard; font-size: medium; font-weight: 400; text-align: start;&quot;&gt;&lt;/span&gt;" style="whiteSpace=wrap;html=1;rounded=0;shadow=0;dashed=0;strokeColor=none;strokeWidth=4;fillColor=#D2AC5B;gradientColor=none;fontFamily=Helvetica;fontSize=30;fontColor=#FFFFFF;align=center;fontStyle=1" parent="1" vertex="1">
          <mxGeometry x="385" y="640" width="240" height="60" as="geometry" />
        </mxCell>
        <mxCell id="55dd390204d0f602-13" value="&lt;font style=&quot;font-size: 22px;&quot; color=&quot;#ffffff&quot;&gt;The Turing Test is a measure of a machine&#39;s ability to exhibit human-like intelligence. The test was introduced by Alan Turing in 1950 and remains an important benchmark for evaluating the capabilities of AI systems&lt;/font&gt;&lt;span style=&quot;caret-color: rgb(0, 0, 0); color: rgb(0, 0, 0); font-family: -webkit-standard; font-size: medium;&quot;&gt;&lt;/span&gt;" style="text;spacingTop=-5;fillColor=#ffffff;whiteSpace=wrap;html=1;align=left;fontSize=14;fontFamily=Helvetica;fillColor=none;strokeColor=none;rounded=0;shadow=0;dashed=0;fontColor=#FEF15B;" parent="1" vertex="1">
          <mxGeometry x="240" y="720" width="535" height="130" as="geometry" />
        </mxCell>
        <mxCell id="55dd390204d0f602-14" value="" style="ellipse;whiteSpace=wrap;html=1;rounded=0;shadow=0;dashed=0;strokeColor=#D2AC5B;strokeWidth=4;fillColor=none;gradientColor=none;fontFamily=Helvetica;fontSize=100;fontColor=#FFFFFF;align=center;" parent="1" vertex="1">
          <mxGeometry x="255" y="970" width="200" height="200" as="geometry" />
        </mxCell>
        <mxCell id="55dd390204d0f602-15" value="" style="ellipse;whiteSpace=wrap;html=1;rounded=0;shadow=0;dashed=0;strokeColor=none;strokeWidth=4;fillColor=#C7983C;gradientColor=none;fontFamily=Helvetica;fontSize=100;fontColor=#FFFFFF;align=center;" parent="1" vertex="1">
          <mxGeometry x="270" y="985" width="170" height="170" as="geometry" />
        </mxCell>
        <mxCell id="55dd390204d0f602-16" value="" style="endArrow=none;html=1;dashed=1;dashPattern=1 1;labelBackgroundColor=none;strokeColor=#EBEBEB;fontFamily=Helvetica;fontSize=100;fontColor=#FFFFFF;strokeWidth=16;" parent="1" edge="1">
          <mxGeometry width="50" height="50" relative="1" as="geometry">
            <mxPoint x="264.58823529411757" y="1220.0000000000002" as="sourcePoint" />
            <mxPoint x="1024" y="1220.0000000000002" as="targetPoint" />
          </mxGeometry>
        </mxCell>
        <mxCell id="55dd390204d0f602-17" value="&lt;font style=&quot;font-size: 18px;&quot;&gt;Agents and Environments&lt;/font&gt;&lt;span style=&quot;caret-color: rgb(0, 0, 0); color: rgb(0, 0, 0); font-family: -webkit-standard; font-size: medium; font-weight: 400; text-align: start;&quot;&gt;&lt;/span&gt;" style="whiteSpace=wrap;html=1;rounded=0;shadow=0;dashed=0;strokeColor=none;strokeWidth=4;fillColor=#D2AC5B;gradientColor=none;fontFamily=Helvetica;fontSize=30;fontColor=#FFFFFF;align=center;fontStyle=1" parent="1" vertex="1">
          <mxGeometry x="655" y="960" width="240" height="60" as="geometry" />
        </mxCell>
        <mxCell id="55dd390204d0f602-18" value="&lt;font style=&quot;font-size: 20px;&quot; color=&quot;#ffffff&quot;&gt;In AI, an agent is a machine or software system that acts in an environment to achieve a goal. The environment can be physical or virtual and can include a wide range of stimuli, including visual and auditory inputs, actions, and events. The interaction between agents and their environments is critical for creating intelligent systems.&lt;/font&gt;&lt;span style=&quot;caret-color: rgb(0, 0, 0); color: rgb(0, 0, 0); font-family: -webkit-standard; font-size: medium;&quot;&gt;&lt;/span&gt;" style="text;spacingTop=-5;fillColor=#ffffff;whiteSpace=wrap;html=1;align=left;fontSize=14;fontFamily=Helvetica;fillColor=none;strokeColor=none;rounded=0;shadow=0;dashed=0;fontColor=#FEF15B;" parent="1" vertex="1">
          <mxGeometry x="510" y="1040" width="535" height="130" as="geometry" />
        </mxCell>
        <mxCell id="55dd390204d0f602-19" value="" style="ellipse;whiteSpace=wrap;html=1;rounded=0;shadow=0;dashed=0;strokeColor=#D2AC5B;strokeWidth=4;fillColor=none;gradientColor=none;fontFamily=Helvetica;fontSize=100;fontColor=#FFFFFF;align=center;" parent="1" vertex="1">
          <mxGeometry x="805" y="1290" width="200" height="200" as="geometry" />
        </mxCell>
        <mxCell id="55dd390204d0f602-20" value="" style="ellipse;whiteSpace=wrap;html=1;rounded=0;shadow=0;dashed=0;strokeColor=none;strokeWidth=4;fillColor=#C7983C;gradientColor=none;fontFamily=Helvetica;fontSize=100;fontColor=#FFFFFF;align=center;" parent="1" vertex="1">
          <mxGeometry x="820" y="1305" width="170" height="170" as="geometry" />
        </mxCell>
        <mxCell id="55dd390204d0f602-22" value="&lt;font style=&quot;font-size: 27px;&quot;&gt;Foundations of AI&lt;/font&gt;&lt;span style=&quot;caret-color: rgb(0, 0, 0); color: rgb(0, 0, 0); font-family: -webkit-standard; font-size: medium; font-weight: 400; text-align: start;&quot;&gt;&lt;/span&gt;" style="whiteSpace=wrap;html=1;rounded=0;shadow=0;dashed=0;strokeColor=none;strokeWidth=4;fillColor=#D2AC5B;gradientColor=none;fontFamily=Helvetica;fontSize=30;fontColor=#FFFFFF;align=center;fontStyle=1" parent="1" vertex="1">
          <mxGeometry x="380" y="1280" width="240" height="60" as="geometry" />
        </mxCell>
        <mxCell id="55dd390204d0f602-23" value="&lt;font style=&quot;font-size: 21px;&quot; color=&quot;#ffffff&quot;&gt;The foundations of AI include mathematical models and algorithms that are used to create intelligent systems. These include decision trees, neural networks, and reinforcement learning algorithms. Understanding the mathematical foundations of AI is crucial for designing and building effective AI systems&lt;/font&gt;&lt;span style=&quot;caret-color: rgb(0, 0, 0); color: rgb(0, 0, 0); font-family: -webkit-standard; font-size: medium;&quot;&gt;&lt;/span&gt;" style="text;spacingTop=-5;fillColor=#ffffff;whiteSpace=wrap;html=1;align=left;fontSize=14;fontFamily=Helvetica;fillColor=none;strokeColor=none;rounded=0;shadow=0;dashed=0;fontColor=#FEF15B;" parent="1" vertex="1">
          <mxGeometry x="235" y="1360" width="535" height="130" as="geometry" />
        </mxCell>
        <mxCell id="toIO4RwqoxFWpAezykZq-1" value="" style="shape=mxgraph.signs.tech.computer;html=1;pointerEvents=1;fillColor=#FFFFFF;strokeColor=none;verticalLabelPosition=bottom;verticalAlign=top;align=center;sketch=0;fontFamily=Tahoma;fontSize=18;fontColor=#FFFFFF;" vertex="1" parent="1">
          <mxGeometry x="306" y="381" width="98" height="98" as="geometry" />
        </mxCell>
        <mxCell id="toIO4RwqoxFWpAezykZq-3" value="" style="shape=mxgraph.signs.healthcare.mental_health;html=1;pointerEvents=1;fillColor=#FFFFFF;strokeColor=none;verticalLabelPosition=bottom;verticalAlign=top;align=center;sketch=0;fontFamily=Tahoma;fontSize=18;fontColor=#FFFFFF;" vertex="1" parent="1">
          <mxGeometry x="868" y="700" width="84" height="98" as="geometry" />
        </mxCell>
        <mxCell id="toIO4RwqoxFWpAezykZq-4" value="" style="shape=mxgraph.signs.healthcare.social_services;html=1;pointerEvents=1;fillColor=#FFFFFF;strokeColor=none;verticalLabelPosition=bottom;verticalAlign=top;align=center;sketch=0;fontFamily=Tahoma;fontSize=18;fontColor=#FFFFFF;" vertex="1" parent="1">
          <mxGeometry x="305" y="1021" width="99" height="98" as="geometry" />
        </mxCell>
        <mxCell id="toIO4RwqoxFWpAezykZq-5" value="" style="endArrow=none;html=1;dashed=1;dashPattern=1 1;labelBackgroundColor=none;strokeColor=#EBEBEB;fontFamily=Helvetica;fontSize=100;fontColor=#FFFFFF;strokeWidth=16;" edge="1" parent="1">
          <mxGeometry width="50" height="50" relative="1" as="geometry">
            <mxPoint x="260.29823529411755" y="1570.0000000000002" as="sourcePoint" />
            <mxPoint x="1019.71" y="1570.0000000000002" as="targetPoint" />
          </mxGeometry>
        </mxCell>
        <mxCell id="toIO4RwqoxFWpAezykZq-6" value="" style="ellipse;whiteSpace=wrap;html=1;rounded=0;shadow=0;dashed=0;strokeColor=#D2AC5B;strokeWidth=4;fillColor=none;gradientColor=none;fontFamily=Helvetica;fontSize=100;fontColor=#FFFFFF;align=center;" vertex="1" parent="1">
          <mxGeometry x="810" y="1650" width="200" height="200" as="geometry" />
        </mxCell>
        <mxCell id="toIO4RwqoxFWpAezykZq-7" value="" style="ellipse;whiteSpace=wrap;html=1;rounded=0;shadow=0;dashed=0;strokeColor=none;strokeWidth=4;fillColor=#C7983C;gradientColor=none;fontFamily=Helvetica;fontSize=100;fontColor=#FFFFFF;align=center;" vertex="1" parent="1">
          <mxGeometry x="825" y="1665" width="170" height="170" as="geometry" />
        </mxCell>
        <mxCell id="toIO4RwqoxFWpAezykZq-8" value="History of AI" style="whiteSpace=wrap;html=1;rounded=0;shadow=0;dashed=0;strokeColor=none;strokeWidth=4;fillColor=#D2AC5B;gradientColor=none;fontFamily=Helvetica;fontSize=30;fontColor=#FFFFFF;align=center;fontStyle=1" vertex="1" parent="1">
          <mxGeometry x="385" y="1640" width="240" height="60" as="geometry" />
        </mxCell>
        <mxCell id="toIO4RwqoxFWpAezykZq-9" value="&lt;font style=&quot;font-size: 21px;&quot; color=&quot;#ffffff&quot;&gt;AI has a rich and diverse history that spans several decades. The field of AI was founded in the 1950s and 1960s and has since grown to encompass a wide range of technologies and applications. Key developments in the history of AI include the introduction of expert systems, the rise of machine learning, and the growth of natural language processing.&lt;/font&gt;&lt;span style=&quot;caret-color: rgb(0, 0, 0); color: rgb(0, 0, 0); font-family: -webkit-standard; font-size: medium;&quot;&gt;&lt;/span&gt;" style="text;spacingTop=-5;fillColor=#ffffff;whiteSpace=wrap;html=1;align=left;fontSize=14;fontFamily=Helvetica;fillColor=none;strokeColor=none;rounded=0;shadow=0;dashed=0;fontColor=#FEF15B;" vertex="1" parent="1">
          <mxGeometry x="240" y="1720" width="535" height="130" as="geometry" />
        </mxCell>
        <mxCell id="toIO4RwqoxFWpAezykZq-11" value="" style="shape=mxgraph.signs.tech.power;html=1;pointerEvents=1;fillColor=#FFFFFF;strokeColor=none;verticalLabelPosition=bottom;verticalAlign=top;align=center;sketch=0;fontFamily=Tahoma;fontSize=27;fontColor=#FFFFFF;" vertex="1" parent="1">
          <mxGeometry x="859.5" y="1341" width="91" height="98" as="geometry" />
        </mxCell>
        <mxCell id="toIO4RwqoxFWpAezykZq-12" value="" style="shape=mxgraph.signs.healthcare.medical_library;html=1;pointerEvents=1;fillColor=#FFFFFF;strokeColor=none;verticalLabelPosition=bottom;verticalAlign=top;align=center;sketch=0;fontFamily=Tahoma;fontSize=21;fontColor=#ffffff;" vertex="1" parent="1">
          <mxGeometry x="856" y="1690" width="98" height="98" as="geometry" />
        </mxCell>
        <mxCell id="toIO4RwqoxFWpAezykZq-14" value="&lt;font style=&quot;font-size: 21px;&quot; color=&quot;#ffffff&quot;&gt;Reference:&lt;br&gt;&lt;/font&gt;&lt;font color=&quot;#ffffff&quot;&gt;Russell, S. J. (2020). Artificial intelligence a modern approach. Pearson Education, Inc.&lt;font style=&quot;font-size: 21px;&quot;&gt;&lt;br&gt;&lt;/font&gt;&lt;/font&gt;&lt;span style=&quot;caret-color: rgb(0, 0, 0); color: rgb(0, 0, 0); font-family: -webkit-standard; font-size: medium;&quot;&gt;&lt;/span&gt;" style="text;spacingTop=-5;fillColor=#ffffff;whiteSpace=wrap;html=1;align=left;fontSize=14;fontFamily=Helvetica;fillColor=none;strokeColor=none;rounded=0;shadow=0;dashed=0;fontColor=#FEF15B;" vertex="1" parent="1">
          <mxGeometry x="240" y="1970" width="570" height="70" as="geometry" />
        </mxCell>
      </root>
    </mxGraphModel>
  </diagram>
</mxfile>
